<?xml version="1.0" standalone="no"?>
<!DOCTYPE svg PUBLIC "-//W3C//DTD SVG 20010904//EN"
 "http://www.w3.org/TR/2001/REC-SVG-20010904/DTD/svg10.dtd">
<svg version="1.0" xmlns="http://www.w3.org/2000/svg"
 width="960.000000pt" height="952.000000pt" viewBox="0 0 960.000000 952.000000"
 preserveAspectRatio="xMidYMid meet">

<g transform="translate(0.000000,952.000000) scale(0.100000,-0.100000)"
fill="#000000" stroke="none">
<path d="M0 4760 l0 -4760 4800 0 4800 0 0 4760 0 4760 -4800 0 -4800 0 0
-4760z m4190 1824 c671 -20 933 -21 1420 -7 514 16 1081 17 1133 2 46 -13 112
-69 137 -119 42 -83 50 -168 50 -553 l0 -364 -72 -7 c-85 -9 -1006 -141 -1318
-190 -118 -19 -216 -33 -217 -32 -1 1 30 27 68 60 l69 58 0 262 c0 262 0 262
-26 314 -80 161 -375 241 -790 213 -265 -18 -447 -57 -599 -131 -153 -74 -230
-170 -229 -290 0 -190 189 -296 564 -316 108 -6 402 8 480 22 15 2 10 -1 -11
-10 -107 -42 -454 -72 -637 -57 -172 15 -285 47 -364 103 l-28 19 0 -195 c0
-195 0 -196 23 -200 12 -3 76 -10 142 -17 66 -6 126 -15 134 -19 7 -4 -105
-26 -250 -49 -771 -124 -934 -153 -952 -169 -17 -15 -21 -15 -53 3 -109 59
-124 153 -124 795 0 451 8 557 50 692 29 95 85 138 225 173 137 34 310 36
1175 9z m905 -492 c108 -23 180 -58 223 -107 27 -30 32 -44 32 -86 0 -27 -6
-62 -14 -77 -53 -102 -216 -171 -491 -209 -164 -23 -549 -23 -655 -1 -208 44
-296 123 -261 231 43 130 292 233 641 267 146 14 419 4 525 -18z m1820 -974
c-27 -87 -89 -158 -175 -201 -45 -22 -49 -22 -680 -28 -349 -3 -636 -4 -638
-4 -1 1 4 15 13 31 8 16 18 44 21 62 4 22 12 32 25 32 65 0 1047 88 1269 114
173 20 173 20 165 -6z m-1617 -207 c-21 -34 -65 -51 -140 -56 -82 -5 -79 -3
57 45 97 35 98 35 83 11z m-3088 -3050 c0 -5 -9 -19 -19 -32 -26 -32 -49 -14
-25 19 15 22 44 30 44 13z m-800 -133 c12 -40 24 -82 26 -93 3 -11 8 -28 10
-37 4 -13 0 -18 -15 -18 -14 0 -23 9 -27 25 -5 19 -13 25 -34 25 -21 0 -29 -6
-34 -25 -4 -16 -13 -25 -26 -25 -11 0 -20 1 -20 3 0 2 6 26 14 53 8 27 21 75
30 107 13 44 21 57 36 57 15 0 23 -15 40 -72z m202 -19 c2 -74 6 -94 20 -103
31 -19 43 8 46 104 4 81 6 90 23 90 17 0 19 -8 19 -82 0 -93 -13 -129 -50
-138 -30 -8 -80 5 -92 22 -4 7 -8 55 -8 106 0 85 2 92 20 92 17 0 20 -8 22
-91z m368 82 c0 -5 -10 -11 -22 -13 -22 -3 -23 -8 -26 -100 -2 -90 -4 -98 -22
-98 -19 0 -20 7 -20 100 l0 100 -25 0 c-14 0 -25 5 -25 10 0 6 30 10 70 10 39
0 70 -4 70 -9z m260 -1 c0 -5 -20 -10 -45 -10 l-45 0 0 -40 0 -40 40 0 c22 0
40 -4 40 -10 0 -5 -18 -10 -40 -10 l-40 0 0 -40 0 -40 45 0 c25 0 45 -4 45
-10 0 -6 -30 -10 -70 -10 l-70 0 0 103 c0 57 3 107 7 110 10 11 133 8 133 -3z
m205 -68 l40 -77 3 78 c2 59 6 77 17 77 12 0 15 -20 15 -110 0 -103 -1 -110
-20 -110 -15 0 -30 20 -59 78 l-40 77 -1 -77 c0 -71 -2 -78 -20 -78 -19 0 -20
7 -20 103 0 57 3 107 7 110 20 20 41 1 78 -71z m345 68 c0 -5 -11 -10 -25 -10
l-25 0 0 -100 c0 -93 -1 -100 -20 -100 -19 0 -20 7 -20 100 l0 100 -25 0 c-14
0 -25 5 -25 10 0 6 30 10 70 10 40 0 70 -4 70 -10z m205 0 c3 -5 -1 -10 -9
-10 -25 0 -23 -167 2 -186 15 -12 11 -13 -30 -14 -27 0 -48 5 -48 10 0 6 5 10
10 10 6 0 10 37 10 90 0 53 -4 90 -10 90 -5 0 -10 5 -10 10 0 6 18 10 39 10
22 0 43 -4 46 -10z m272 -12 c13 -12 23 -27 23 -35 0 -22 -35 -15 -45 9 -15
34 -41 34 -59 -1 -40 -76 7 -193 54 -136 12 15 50 21 50 8 0 -21 -37 -43 -72
-43 -56 0 -88 34 -88 95 0 104 76 161 137 103z m296 -11 c31 -41 30 -127 -2
-161 -50 -53 -133 -25 -147 49 -7 41 18 119 44 135 31 18 83 7 105 -23z m483
19 c15 -12 16 -17 7 -27 -10 -10 -17 -9 -32 5 -26 23 -51 14 -51 -18 0 -18 10
-30 42 -48 81 -44 72 -118 -15 -118 -47 0 -77 22 -77 57 0 32 26 29 42 -4 17
-35 61 -40 66 -7 2 16 -10 31 -47 58 -42 29 -51 41 -51 65 0 18 7 34 18 40 25
15 75 13 98 -3z m185 -58 c1 -90 10 -122 33 -126 29 -6 36 16 36 111 0 80 2
87 20 87 19 0 20 -7 20 -93 0 -113 -11 -130 -81 -125 -57 4 -69 27 -69 136 0
75 2 82 20 82 18 0 20 -7 21 -72z m358 56 c16 -12 20 -19 12 -27 -7 -7 -16 -6
-29 6 -26 23 -49 21 -58 -5 -5 -18 -1 -27 22 -43 57 -40 84 -73 78 -92 -11
-29 -35 -43 -74 -43 -44 0 -69 17 -72 50 -4 37 26 38 42 0 9 -23 18 -30 34
-28 46 7 24 63 -36 94 -35 18 -44 48 -24 79 20 30 69 34 105 9z m191 -39 l0
-55 40 0 40 0 0 55 c0 48 2 55 20 55 19 0 20 -7 20 -110 0 -103 -1 -110 -20
-110 -17 0 -20 7 -20 39 0 43 -8 49 -52 43 -25 -4 -28 -8 -28 -43 0 -32 -3
-39 -20 -39 -19 0 -20 7 -20 110 0 103 1 110 20 110 18 0 20 -7 20 -55z m330
45 c0 -5 -4 -10 -10 -10 -6 0 -10 -37 -10 -90 0 -53 4 -90 10 -90 6 0 10 -4
10 -10 0 -5 -18 -10 -40 -10 -22 0 -40 5 -40 10 0 6 5 10 10 10 6 0 10 37 10
90 0 53 -4 90 -10 90 -5 0 -10 5 -10 10 0 6 18 10 40 10 22 0 40 -4 40 -10z
m478 -6 c12 -8 26 -23 32 -33 7 -15 5 -20 -10 -24 -14 -4 -23 2 -33 21 -16 34
-47 35 -64 2 -18 -35 -16 -101 3 -128 17 -25 49 -29 58 -7 5 15 46 22 46 8 0
-22 -37 -43 -76 -43 -56 0 -84 33 -84 97 0 97 65 152 128 107z m200 -64 c3
-106 8 -122 35 -118 21 3 22 9 27 98 5 87 7 95 25 95 17 0 20 -8 23 -60 4 -74
-4 -120 -24 -140 -16 -16 -80 -20 -102 -7 -19 12 -32 69 -32 138 0 65 5 76 30
72 12 -3 16 -20 18 -78z m280 -23 l3 -97 44 0 c25 0 45 -4 45 -10 0 -6 -30
-10 -70 -10 l-70 0 0 103 c0 107 3 120 30 115 12 -3 16 -22 18 -101z m292 93
c0 -5 -4 -10 -10 -10 -5 0 -9 -39 -9 -90 0 -50 4 -90 10 -90 5 0 9 -4 9 -10 0
-5 -18 -10 -40 -10 -22 0 -40 5 -40 10 0 6 5 10 10 10 6 0 10 37 10 90 0 53
-4 90 -10 90 -5 0 -10 5 -10 10 0 6 18 10 40 10 22 0 40 -4 40 -10z m263 -1
c14 -6 30 -22 36 -35 9 -21 8 -24 -12 -24 -13 0 -26 9 -32 23 -13 29 -46 28
-62 -3 -18 -35 -16 -101 3 -128 17 -25 49 -29 58 -7 6 16 46 21 46 7 0 -21
-41 -44 -77 -44 -88 0 -115 124 -45 205 17 20 50 22 85 6z m207 -44 l0 -55 40
0 40 0 0 55 c0 48 2 55 20 55 19 0 20 -7 20 -110 0 -103 -1 -110 -20 -110 -17
0 -20 7 -20 39 0 43 -8 49 -52 43 -25 -4 -28 -8 -28 -43 0 -32 -3 -39 -20 -39
-19 0 -20 7 -20 110 0 103 1 110 20 110 18 0 20 -7 20 -55z m330 45 c0 -5 -4
-10 -10 -10 -6 0 -10 -37 -10 -90 0 -53 4 -90 10 -90 6 0 10 -4 10 -10 0 -5
-18 -10 -40 -10 -22 0 -40 5 -40 10 0 6 5 10 10 10 6 0 10 37 10 90 0 53 -4
90 -10 90 -5 0 -10 5 -10 10 0 6 18 10 40 10 22 0 40 -4 40 -10z m490 0 c0 -5
-11 -10 -25 -10 l-25 0 0 -101 c0 -98 0 -100 -22 -97 -22 3 -23 8 -26 101 -3
96 -3 97 -28 97 -14 0 -22 4 -19 10 3 6 37 10 76 10 39 0 69 -4 69 -10z m247
-5 c45 -31 54 -126 18 -181 -12 -19 -24 -24 -59 -24 -90 0 -124 113 -59 191
28 33 66 38 100 14z m522 -11 c12 -15 21 -31 21 -35 0 -19 -35 -7 -56 18 -19
24 -24 26 -38 14 -45 -38 -37 -162 12 -169 30 -5 50 40 20 48 -32 8 -25 25 11
28 41 4 56 -9 47 -42 -9 -38 -34 -56 -76 -56 -68 0 -105 68 -80 145 25 75 98
101 139 49z m272 13 c65 -50 50 -190 -22 -208 -99 -24 -148 115 -71 204 17 20
69 22 93 4z"/>
<path d="M6585 6263 c-126 -18 -986 -238 -997 -255 -4 -7 -8 -47 -8 -88 0 -98
27 -156 84 -184 l40 -19 240 48 c270 53 561 117 649 142 49 13 63 23 84 54 31
47 42 147 23 214 -13 45 -53 96 -74 94 -6 -1 -24 -4 -41 -6z"/>
<path d="M3223 6143 c-21 -4 -23 -10 -23 -74 l0 -69 43 1 c38 1 39 2 12 8 -24
5 -30 12 -30 31 0 19 6 26 30 31 l30 7 -32 1 c-28 1 -33 5 -33 26 0 21 5 25
31 25 17 0 28 4 24 10 -6 10 -13 11 -52 3z"/>
<path d="M3368 6139 c-24 -13 -23 -46 1 -59 32 -17 50 -40 45 -55 -9 -22 -35
-18 -41 5 -5 20 -33 29 -33 11 0 -38 73 -52 94 -18 9 15 5 24 -27 50 -20 18
-37 37 -37 43 0 15 28 26 35 14 4 -6 12 -10 18 -10 7 0 3 7 -7 15 -23 17 -25
18 -48 4z"/>
<path d="M3530 6139 c-19 -3 -27 -7 -17 -8 14 -1 17 -11 17 -66 0 -37 4 -65
10 -65 6 0 10 28 10 64 0 53 3 65 18 68 9 2 13 6 7 9 -5 3 -26 2 -45 -2z"/>
<path d="M3650 6010 c0 -5 5 -10 10 -10 6 0 10 5 10 10 0 6 -4 10 -10 10 -5 0
-10 -4 -10 -10z"/>
<path d="M3168 5888 c-20 -17 -30 -46 -18 -53 6 -4 14 5 20 19 11 30 40 35 40
7 0 -10 -10 -33 -23 -52 -41 -61 -42 -59 5 -58 39 1 40 2 13 8 -20 4 -26 9
-17 14 7 5 21 26 32 48 l20 39 -20 20 c-23 23 -31 24 -52 8z"/>
<path d="M3310 5880 c-25 -25 -27 -91 -4 -114 36 -37 84 -2 84 61 0 32 -28 73
-50 73 -5 0 -19 -9 -30 -20z m50 -31 c9 -34 -3 -84 -20 -84 -21 0 -35 60 -21
91 13 30 33 27 41 -7z"/>
<path d="M3468 5888 c-20 -17 -30 -46 -18 -53 6 -4 14 5 20 19 5 14 16 26 25
26 23 0 18 -39 -8 -74 -42 -56 -42 -56 5 -55 28 1 34 3 16 6 l-27 4 25 36 c29
43 31 79 5 93 -24 13 -24 13 -43 -2z"/>
<path d="M3600 5860 c0 -36 3 -40 24 -40 26 0 36 -14 28 -43 -4 -15 -11 -18
-33 -13 -16 3 -29 1 -29 -4 0 -14 64 -12 78 2 21 21 13 48 -18 66 -39 22 -40
52 -2 53 l27 1 -25 8 c-46 15 -50 12 -50 -30z"/>
<path d="M3679 5516 c-2 -3 -139 -41 -304 -85 -469 -126 -458 -122 -469 -152
-11 -32 -1 -75 19 -83 8 -3 149 19 312 49 425 77 397 70 428 115 25 36 55 116
55 147 0 12 -31 19 -41 9z"/>
<path d="M4588 6060 c-98 -20 -230 -62 -293 -91 -87 -41 -184 -159 -129 -159
23 0 197 75 293 127 100 53 250 151 219 142 -2 0 -42 -9 -90 -19z"/>
<path d="M4915 6040 c-96 -25 -178 -58 -330 -130 -163 -78 -361 -164 -398
-174 -35 -8 -31 -24 13 -53 86 -59 257 -6 555 169 116 69 249 162 275 193 11
13 8 15 -16 14 -16 0 -60 -8 -99 -19z"/>
<path d="M5050 5954 c-82 -72 -252 -188 -370 -254 l-75 -41 60 6 c246 25 433
93 488 177 31 48 34 76 11 124 -28 59 -34 58 -114 -12z"/>
<path d="M1360 1706 c0 -8 -3 -21 -6 -30 -4 -12 0 -16 16 -16 16 0 20 4 16 16
-3 9 -6 22 -6 30 0 8 -4 14 -10 14 -5 0 -10 -6 -10 -14z"/>
<path d="M3464 1734 c-22 -53 2 -134 40 -134 33 0 51 104 26 149 -17 33 -49
26 -66 -15z"/>
<path d="M7831 1761 c-29 -29 -30 -120 -1 -146 10 -9 26 -15 35 -11 39 15 43
127 5 161 -17 16 -20 15 -39 -4z"/>
<path d="M8625 1760 c-38 -42 -25 -150 19 -158 27 -6 45 27 46 81 0 77 -31
114 -65 77z"/>
</g>
</svg>
